<?xml version="1.0" standalone="no"?><!DOCTYPE svg PUBLIC "-//W3C//DTD SVG 1.1//EN" "http://www.w3.org/Graphics/SVG/1.1/DTD/svg11.dtd"><svg t="1749621687200" class="icon" viewBox="0 0 1024 1024" version="1.1" xmlns="http://www.w3.org/2000/svg" p-id="8237" xmlns:xlink="http://www.w3.org/1999/xlink" width="200" height="200"><path d="M160 96h704c35.346 0 64 28.654 64 64v704c0 35.346-28.654 64-64 64H160c-35.346 0-64-28.654-64-64V160c0-35.346 28.654-64 64-64z m32 96v640h640V192H192z m368 272h160c26.51 0 48 21.49 48 48s-21.49 48-48 48H560v160c0 26.51-21.49 48-48 48s-48-21.49-48-48V560H304c-26.51 0-48-21.49-48-48s21.49-48 48-48h160V304c0-26.51 21.49-48 48-48s48 21.49 48 48v160z" fill="#ffffff" p-id="8238"></path></svg>