<?xml version="1.0" standalone="no"?><!DOCTYPE svg PUBLIC "-//W3C//DTD SVG 1.1//EN" "http://www.w3.org/Graphics/SVG/1.1/DTD/svg11.dtd"><svg t="1748332972265" class="icon" viewBox="0 0 1024 1024" version="1.1" xmlns="http://www.w3.org/2000/svg" p-id="18652" xmlns:xlink="http://www.w3.org/1999/xlink" width="200" height="200"><path d="M512 0C362.861714 0 241.993143 124.452571 241.993143 277.942857c0 101.376 52.699429 190.061714 131.437714 238.592a459.337143 459.337143 0 0 0-174.921143 113.152 475.209143 475.209143 0 0 0-53.174857 65.389714 476.525714 476.525714 0 0 0-45.750857 85.686858A481.28 481.28 0 0 0 63.268571 965.485714h73.142858a408.210286 408.210286 0 0 1 70.070857-230.290285 401.92 401.92 0 0 1 115.931428-112.786286 385.792 385.792 0 0 1 122.404572-50.468572 378.88 378.88 0 0 1 81.371428-8.740571c27.757714 0 54.857143 2.925714 81.334857 8.704a385.609143 385.609143 0 0 1 193.865143 108.726857 401.627429 401.627429 0 0 1 83.748572 127.926857 409.307429 409.307429 0 0 1 30.793143 156.928h73.142857a482.706286 482.706286 0 0 0-82.029715-270.409143 474.477714 474.477714 0 0 0-135.460571-132.864 458.386286 458.386286 0 0 0-111.36-51.931428c73.325714-49.737143 121.746286-135.204571 121.746286-232.338286C782.006857 124.452571 661.101714 0 512 0z m-41.325714 77.604571A190.098286 190.098286 0 0 1 512 73.142857a190.171429 190.171429 0 0 1 100.571429 28.672 204.105143 204.105143 0 0 1 80.530285 95.744 209.554286 209.554286 0 0 1 15.725715 80.384 212.187429 212.187429 0 0 1-15.725715 80.384 205.787429 205.787429 0 0 1-42.642285 65.170286 197.778286 197.778286 0 0 1-62.573715 43.483428A189.037714 189.037714 0 0 1 512 482.742857a189.988571 189.988571 0 0 1-100.608-28.672 204.324571 204.324571 0 0 1-80.530286-95.744 209.737143 209.737143 0 0 1-15.725714-80.384 209.664 209.664 0 0 1 36.205714-118.454857 204.617143 204.617143 0 0 1 60.050286-57.673143 195.108571 195.108571 0 0 1 59.245714-24.210286z" fill="#4E4D4D" p-id="18653"></path></svg>