<?xml version="1.0" standalone="no"?><!DOCTYPE svg PUBLIC "-//W3C//DTD SVG 1.1//EN" "http://www.w3.org/Graphics/SVG/1.1/DTD/svg11.dtd"><svg t="1749534390410" class="icon" viewBox="0 0 1024 1024" version="1.1" xmlns="http://www.w3.org/2000/svg" p-id="5216" xmlns:xlink="http://www.w3.org/1999/xlink" width="200" height="200"><path d="M603.008 702.656a28 28 0 0 1-39.68 0L378.656 531.2a28 28 0 0 1 0-40.992l184-172.32a28.096 28.096 0 1 1 38.4 40.992L439.68 512l162.336 152a28 28 0 0 1 0.992 38.656zM512 112A400 400 0 1 0 912 512 400 400 0 0 0 512 112z" fill="#000000" fill-opacity="0.65" p-id="5217"></path><path d="M603.2 703.648a28.032 28.032 0 0 1-39.744 0l-184.96-171.616a28.032 28.032 0 0 1 0-41.056l184.32-172.608a28.096 28.096 0 1 1 38.4 41.056l-161.6 153.248 162.592 152.256a28.032 28.032 0 0 1 0.992 38.72z" fill="#FFFFFF" fill-opacity="0.65" p-id="5218"></path></svg>