<?xml version="1.0" standalone="no"?><!DOCTYPE svg PUBLIC "-//W3C//DTD SVG 1.1//EN" "http://www.w3.org/Graphics/SVG/1.1/DTD/svg11.dtd"><svg t="1749111962208" class="icon" viewBox="0 0 1024 1024" version="1.1" xmlns="http://www.w3.org/2000/svg" p-id="23643" xmlns:xlink="http://www.w3.org/1999/xlink" width="200" height="200"><path d="M626.899663 1024H397.100337c-16.299952 0-29.499914-13.099962-29.599914-29.399914v-72.999786h-24.699927c-16.299952 0-29.499914-13.099962-29.599914-29.399914V789.800686c0.1-16.299952 13.299961-29.499914 29.599914-29.399914h4.699986v-33.199902c-62.599817-29.499914-116.09966-75.399779-154.699547-132.899611C90.201236 443.101702 111.301174 240.002297 242.700789 113.102669 312.600584 42.502875 407.200307 2.002994 506.500016 0.003h5.499984c100.899704-0.399999 197.799421 39.199885 269.69921 109.999678 128.599623 125.999631 151.499556 324.799048 54.899839 476.698603-38.999886 60.999821-94.399723 109.799678-159.999531 140.499589v33.199902h4.699986c16.299952 0 29.499914 13.099962 29.599913 29.399914v102.3997c-0.1 16.299952-13.299961 29.499914-29.599913 29.399914h-24.799927v72.999786c-0.1 16.299952-13.299961 29.399914-29.599914 29.399914zM426.60025 921.6003v43.599872h170.6995v-43.599872H426.60025z m-54.299841-102.3997v43.599872h279.399182v-43.599872H372.300409zM512.1 58.802828h-4.899986c-170.4995 2.399993-317.099071 147.699567-320.099062 317.29907-2.799992 133.499609 77.299774 254.799254 201.099411 304.799107 11.099967 4.499987 18.299946 15.299955 18.299946 27.19992v52.399847h75.799778V602.201236l-99.799708-137.499597c-9.499972-13.099962-6.599981-31.399908 6.499981-40.899881 0.1 0 0.1-0.1 0.2-0.099999 13.199961-9.499972 31.699907-6.499981 41.299879 6.59998L512 542.501411l81.399762-112.199672c9.599972-13.199961 27.999918-16.099953 41.299879-6.59998 13.199961 9.399972 16.199953 27.699919 6.79998 40.89988 0 0.1-0.1 0.1-0.1 0.199999l-99.799708 137.499597v158.199537h75.899778v-52.399847c0-11.899965 7.199979-22.699933 18.299946-27.19992 165.099516-67.699802 244.099285-256.399249 176.399484-421.498765-49.999854-121.699643-168.599506-200.999411-300.099121-200.599412z m157.199539 346.598984c-1.899994 0-3.899989-0.199999-5.799983-0.599998-1.899994-0.399999-3.699989-0.899997-5.499984-1.599995-1.799995-0.699998-3.49999-1.599995-5.099985-2.699992-1.599995-1.099997-3.099991-2.299993-4.499987-3.69999-11.499966-11.399967-11.599966-29.899912-0.199999-41.399878l0.199999-0.2c1.399996-1.399996 2.899992-2.599992 4.499987-3.599989 1.599995-1.099997 3.29999-1.999994 5.099985-2.699992 1.799995-0.699998 3.599989-1.299996 5.499984-1.699995 1.899994-0.399999 3.799989-0.599998 5.699983-0.599998 7.899977 0 15.399955 3.099991 20.999939 8.599974 1.399996 1.399996 2.599992 2.899992 3.699989 4.499987 3.199991 4.799986 4.999985 10.499969 4.999985 16.299952 0 7.799977-3.099991 15.299955-8.699974 20.799939-1.399996 1.399996-2.899992 2.599992-4.499987 3.69999-3.199991 2.099994-6.79998 3.599989-10.599969 4.399987-1.999994 0.299999-3.899989 0.499999-5.799983 0.499998z m-314.599078 0c-1.899994 0-3.899989-0.199999-5.799983-0.599998-1.899994-0.399999-3.699989-0.899997-5.499984-1.599995-10.999968-4.499987-18.199947-15.199955-18.299946-27.199921 0-1.899994 0.199999-3.799989 0.599998-5.699983 0.399999-1.899994 0.899997-3.699989 1.699995-5.499984 0.699998-1.799995 1.599995-3.49999 2.699992-5.099985 2.099994-3.199991 4.899986-5.999982 8.199976-8.099976 1.599995-1.099997 3.29999-1.999994 5.099985-2.699992 1.799995-0.699998 3.599989-1.299996 5.499984-1.699995 3.799989-0.799998 7.699977-0.799998 11.599966 0 1.899994 0.399999 3.699989 0.899997 5.499984 1.699995 1.799995 0.699998 3.49999 1.599995 5.099985 2.699992 1.599995 1.099997 3.099991 2.299993 4.499987 3.599989 4.099988 4.099988 6.89998 9.299973 8.099976 14.999956 0.399999 1.899994 0.599998 3.799989 0.599998 5.699984 0 11.899965-7.199979 22.699933-18.199947 27.19992-1.799995 0.699998-3.599989 1.299996-5.499983 1.599995-1.999994 0.499999-3.899989 0.699998-5.899983 0.699998z" fill="#333333" p-id="23644"></path></svg>